<svg xmlns="http://www.w3.org/2000/svg" viewBox="0 0 166.77 53.91"><defs><style>.cls-1{fill:#000000;}.cls-2{fill:#fff;}</style></defs><title>Fichier 1</title><g id="Calque_2" data-name="Calque 2"><g id="Calque_1-2" data-name="Calque 1"><polygon class="cls-1" points="0.23 0.17 0 53.91 92.49 53.79 112.06 0 0.23 0.17"/><path class="cls-2" d="M27.43,42.19a9.87,9.87,0,0,1-2.63-.36,8.77,8.77,0,0,1-2.48-1.12,9.26,9.26,0,0,1-3.18-3.43A9.5,9.5,0,0,1,18,32.68h6.4a2.77,2.77,0,0,0,.5,1.76,3.54,3.54,0,0,0,.87.85,2.82,2.82,0,0,0,1.48.5,3.39,3.39,0,0,0,1.55-.31,2.57,2.57,0,0,0,.85-.56,3.14,3.14,0,0,0,.5-.67,1.73,1.73,0,0,0,.2-.62,3.52,3.52,0,0,0,0-.5,3.39,3.39,0,0,0,0-.49,1.88,1.88,0,0,0-.2-.64,2.5,2.5,0,0,0-.5-.66,3,3,0,0,0-.85-.59c-.28-.13-.58-.24-.89-.35s-.65-.21-1-.34c-.63-.2-1.28-.42-2-.68a10.79,10.79,0,0,1-2-1,8,8,0,0,1-2.24-2.09,8.17,8.17,0,0,1-1.57-5.66,7.94,7.94,0,0,1,.85-2.94,8.43,8.43,0,0,1,1.71-2.23,8,8,0,0,1,5-2.16,8.85,8.85,0,0,1,2.92.26,8.6,8.6,0,0,1,2.6,1.08,8.42,8.42,0,0,1,2,1.78,7.77,7.77,0,0,1,1.3,2.34,8,8,0,0,1,.45,2.68H29.52A1.3,1.3,0,0,0,29,20.21a3.53,3.53,0,0,0-1-.45l-.36-.06a1.72,1.72,0,0,0-.64,0,2.3,2.3,0,0,0-.74.27,1.51,1.51,0,0,0-.61.66,1.69,1.69,0,0,0-.11,1.27,1.82,1.82,0,0,0,.76,1,7.94,7.94,0,0,0,1.17.55l1.37.48c.43.12.86.26,1.3.41s.89.33,1.34.53a8.94,8.94,0,0,1,5.32,8.22A8.79,8.79,0,0,1,35.38,38a8.91,8.91,0,0,1-3.9,3.34,9.19,9.19,0,0,1-2,.66A10.12,10.12,0,0,1,27.43,42.19Z"/><path class="cls-2" d="M50.1,41.66a10.52,10.52,0,0,1-7.39-3,10.77,10.77,0,0,1-2.33-3.42,10.57,10.57,0,0,1-.86-4.05V13.81h6.41V31.16a4,4,0,0,0,1.25,2.92,4.17,4.17,0,0,0,3,1.17,3.9,3.9,0,0,0,1.59-.33A4.43,4.43,0,0,0,53.05,34a3.84,3.84,0,0,0,.87-1.33,4.41,4.41,0,0,0,.3-1.63V13.81h6.41V31a9.94,9.94,0,0,1-.78,4.09,10.7,10.7,0,0,1-2.23,3.38,10.85,10.85,0,0,1-3.34,2.29,10.37,10.37,0,0,1-4.07.89Z"/><path class="cls-2" d="M96.4,6.38l7.2-.08L90.22,41.66H83.89L80.22,27.71,77,41.66H70.67l-9.24-28h6.74l5.15,15.5,3.56-17.88h6.29l4.06,17.8Z"/><path class="cls-1" d="M116,53.91l-1.1-3.37h-8.75l-1.13,3.37H98.26l9.48-27.81h6.06l9,27.81Zm-7.65-9.77h4.51l-2.2-6.75Z"/><path class="cls-1" d="M133.09,46.71c-.33.06-.66.09-1,.12l-1,.08v7h-6.41V26.21h6.41a12.49,12.49,0,0,1,4.47.88,12.1,12.1,0,0,1,3.66,2.23,10.51,10.51,0,0,1,2.46,3.25,9.12,9.12,0,0,1,.89,4,9.23,9.23,0,0,1-.95,4.15A10.05,10.05,0,0,1,139,44l6.14,9.91h-7.54Zm-2-6.25A6.35,6.35,0,0,0,133,40.1a5.85,5.85,0,0,0,1.63-.85,4,4,0,0,0,1.1-1.23,3.05,3.05,0,0,0,.39-1.5,2.89,2.89,0,0,0-.39-1.47,4.21,4.21,0,0,0-1.1-1.22A6.13,6.13,0,0,0,133,33a6.35,6.35,0,0,0-1.95-.36Z"/><path class="cls-1" d="M153.43,26a13.63,13.63,0,0,1,5.21,1.32,14.17,14.17,0,0,1,7.09,7.47,13.85,13.85,0,0,1,1,5.34,13.5,13.5,0,0,1-1,5.25,13.71,13.71,0,0,1-7.05,7.27,14.17,14.17,0,0,1-5.27,1.27H147V26h6.4Zm0,21.48a8.15,8.15,0,0,0,2.75-.77,7.74,7.74,0,0,0,2.2-1.6,7.16,7.16,0,0,0,2-5,7.72,7.72,0,0,0-.53-2.82,7.84,7.84,0,0,0-3.68-4.09,7.17,7.17,0,0,0-2.73-.82Z"/></g></g></svg>